<?xml version="1.0" encoding="UTF-8"?>
<svg width="1020px" height="735px" viewBox="0 0 1020 735" version="1.1" xmlns="http://www.w3.org/2000/svg" xmlns:xlink="http://www.w3.org/1999/xlink">
    <!-- Generator: Sketch 60.1 (88133) - https://sketch.com/ -->
    <title>girl-reading</title>
    <desc>Created with Sketch.</desc>
    <g id="Page-1" stroke="none" stroke-width="1" fill="none" fill-rule="evenodd">
        <g id="girl-reading">
            <ellipse id="Oval" fill="#3F3D56" fill-rule="nonzero" cx="502" cy="701.69614" rx="259" ry="32.5"></ellipse>
            <path d="M940.12537,423.80857 L840,471.19614 L928.6153,404.93424 C914.212857,382.45383 898.033186,361.162951 880.23145,341.26578 L446,449.19614 L838.2334,299.57261 C820.309697,283.758309 801.274999,269.249702 781.27576,256.15842 L119.60925,362.73557 C49.3570243,450.585627 11.0604341,559.710564 11.00635,672.19614 L1006.99365,672.19614 C1006.95331,584.958164 983.88696,499.276373 940.12537,423.80857 Z" id="Path" fill="#FEDC62" fill-rule="nonzero"></path>
            <path d="M727.12317,225.39151 C659.189966,192.258053 584.582635,175.089117 509,175.195643 C355.17035,175.195643 217.63861,244.94883 126.28967,354.54483 C282.71606,320.27036 555.06689,260.9393 727.12317,225.39151 Z" id="Path" fill="#FEDC62" fill-rule="nonzero"></path>
            <circle id="Oval" fill="#3676D9" fill-rule="nonzero" opacity="0.4" cx="825.07983" cy="258.36001" r="14.92017"></circle>
            <circle id="Oval" fill="#3676D9" fill-rule="nonzero" opacity="0.4" cx="797.46639" cy="265.48606" r="10.46639"></circle>
            <circle id="Oval" fill="#3676D9" fill-rule="nonzero" opacity="0.4" cx="118.7521" cy="297.89782" r="31.2479"></circle>
            <circle id="Oval" fill="#3676D9" fill-rule="nonzero" opacity="0.4" cx="60.92017" cy="312.82219" r="21.92017"></circle>
            <rect id="Rectangle" fill="#2F2E41" fill-rule="nonzero" x="0" y="671.19614" width="1020" height="2"></rect>
            <path d="M904.44094,671.19614 L825,553.19614 C825,553.19614 945.30709,595.19614 931.65354,671.19614 L904.44094,671.19614 Z" id="Path" fill="#3F3D56" fill-rule="nonzero"></path>
            <path d="M907.55906,671.19614 L987,553.19614 C987,553.19614 866.69291,595.19614 880.34646,671.19614 L907.55906,671.19614 Z" id="Path" fill="#3676D9" fill-rule="nonzero"></path>
            <path d="M208,132.77087 C208,126.27401 198.7362,121.00728 187.30868,121.00728 C187.08251,121.00728 186.85875,121.01286 186.63432,121.01696 C183.18706,110.44963 166.89116,102.44696 147.30547,102.44696 C130.64159,102.44696 116.35961,108.24034 110.34547,116.4771 C105.901988,115.301145 101.323109,114.714874 96.72669,114.73338 C79.20451,114.73336 65,122.80907 65,132.77087 C65,141.82005 76.72185,149.31143 92.00353,150.60838 C103.10817,152.63875 120.45387,153.94538 139.94853,153.94538 C173.04524,153.94538 197.26243,147.63196 197.8698,142.88638 C203.93431,140.83535 208,137.0738 208,132.77087 Z" id="Path" fill="#F2F2F2" fill-rule="nonzero"></path>
            <path d="M708,137.77087 C708,131.27401 698.7362,126.00728 687.30868,126.00728 C687.08251,126.00728 686.85875,126.01286 686.63432,126.01696 C683.18706,115.44963 666.89116,107.44696 647.30547,107.44696 C630.64159,107.44696 616.35961,113.24034 610.34547,121.4771 C605.901988,120.301145 601.323109,119.714874 596.72669,119.73338 C579.20451,119.73336 565,127.80907 565,137.77087 C565,146.82005 576.72185,154.31143 592.00353,155.60838 C603.10817,157.63875 620.45387,158.94538 639.94853,158.94538 C673.04524,158.94538 697.26243,152.63196 697.8698,147.88638 C703.93431,145.83535 708,142.0738 708,137.77087 Z" id="Path" fill="#F2F2F2" fill-rule="nonzero"></path>
            <path d="M987,53.22591 C987,41.82233 970.73976,32.57791 950.68167,32.57791 C950.28467,32.57791 949.89194,32.58771 949.49801,32.59491 C943.44722,14.04665 914.84392,-2e-05 880.46624,-2e-05 C851.21705,-2e-05 826.14869,10.16876 815.5924,24.6263 C807.792997,22.5622159 799.755942,21.5331703 791.6881,21.56565 C760.9324,21.56565 736,35.74042 736,53.22589 C736,69.10942 756.57472,82.25862 783.39781,84.53508 C802.88916,88.09888 833.33512,90.39226 867.55305,90.39226 C925.64588,90.39226 968.15297,79.31066 969.21905,70.98103 C979.86372,67.38107 987,60.77861 987,53.22591 Z" id="Path" fill="#F2F2F2" fill-rule="nonzero"></path>
            <path d="M570.16983,289.90737 C549.48525,254.95683 508.56246,253.32798 508.56246,253.32798 C508.56246,253.32798 468.68553,248.22856 443.10474,301.45866 C419.26139,351.07349 386.35454,398.97766 437.807,410.59209 L447.10081,381.66559 L452.85641,412.74559 C460.182253,413.272494 467.531441,413.398098 474.87101,413.12184 C529.97244,411.34284 582.44822,413.64232 580.75858,393.86961 C578.51249,367.58463 590.07254,323.53677 570.16983,289.90737 Z" id="Path" fill="#2F2E41" fill-rule="nonzero"></path>
            <path d="M434.8692,595.98589 C434.261697,599.830172 433.379912,603.62606 432.2306,607.34448 C430.93624,610.98416 428.93789,614.35017 427.75441,618.02739 C423.982,629.74874 429.21168,642.81775 437.5643,651.86511 C444.807686,659.679636 454.157375,665.231499 464.48557,667.85101 C472.02073,669.74613 479.85557,670.01889 487.62089,670.28221 C509.12359,671.01137 531.17954,671.66372 551.55462,664.75331 C557.991917,662.516269 564.209691,659.691578 570.12929,656.31497 C571.998324,655.424503 573.644958,654.127963 574.94902,652.51997 C576.50302,650.30756 576.70183,647.43825 576.688886,644.73465 C576.64255,635.61909 574.79455,626.55002 575.23332,617.44491 C575.47632,612.4016 576.42022,607.3622 575.95561,602.33446 C574.637946,590.634518 566.111406,581.024078 554.65167,578.32235 C548.87167,577.08115 542.87667,577.75749 536.99213,578.3233 C521.717313,579.791013 506.377452,580.476908 491.0326,580.3783 C475.35408,580.27823 459.77237,577.88492 444.17189,577.63497 C439.55838,577.56105 439.65158,578.98335 438.1828,583.44838 C436.829892,587.557926 435.723392,591.744536 434.8692,595.98589 L434.8692,595.98589 Z" id="Path" fill="#2F2E41" fill-rule="nonzero"></path>
            <path d="M479.36353,370.90041 C478.61008,374.84551 477.79572,378.93491 475.42493,382.17696 C472.69727,385.90704 468.24993,388.03831 465.31555,391.60806 C460.89872,396.98127 460.6452,404.54224 460.62699,411.49777 C460.61022,417.90534 460.74037,424.7397 464.31359,430.05847 C466.63259,433.51038 470.16126,435.93047 473.60982,438.25447 C487.01009,447.28508 501.49049,456.47782 517.64692,456.77564 C524.34113,456.89903 531.51883,455.17024 535.92354,450.12781 C537.825322,447.759296 539.320673,445.091471 540.3486,442.23315 C544.47969,432.049678 546.983909,421.279988 547.76952,410.31861 C548.13746,405.16161 548.1023,399.85413 546.35682,394.98753 C544.39409,389.51521 540.42548,385.01259 537.80259,379.82423 C534.702066,373.654716 533.568034,366.682787 534.55343,359.84867 C534.683956,359.367454 534.64367,358.855874 534.43943,358.40102 C534.002121,357.907515 533.359143,357.64698 532.70165,357.69687 L500.66605,355.39067 C497.682421,355.242416 494.711406,354.902535 491.77138,354.37313 C490.04438,354.02198 485.48312,351.5693 483.83645,352.22149 C480.78831,353.42876 479.98833,367.6289 479.36353,370.90041 Z" id="Path" fill="#FFB8B8" fill-rule="nonzero"></path>
            <path d="M479.36353,370.90041 C478.61008,374.84551 477.79572,378.93491 475.42493,382.17696 C472.69727,385.90704 468.24993,388.03831 465.31555,391.60806 C460.89872,396.98127 460.6452,404.54224 460.62699,411.49777 C460.61022,417.90534 460.74037,424.7397 464.31359,430.05847 C466.63259,433.51038 470.16126,435.93047 473.60982,438.25447 C487.01009,447.28508 501.49049,456.47782 517.64692,456.77564 C524.34113,456.89903 531.51883,455.17024 535.92354,450.12781 C537.825322,447.759296 539.320673,445.091471 540.3486,442.23315 C544.47969,432.049678 546.983909,421.279988 547.76952,410.31861 C548.13746,405.16161 548.1023,399.85413 546.35682,394.98753 C544.39409,389.51521 540.42548,385.01259 537.80259,379.82423 C534.702066,373.654716 533.568034,366.682787 534.55343,359.84867 C534.683956,359.367454 534.64367,358.855874 534.43943,358.40102 C534.002121,357.907515 533.359143,357.64698 532.70165,357.69687 L500.66605,355.39067 C497.682421,355.242416 494.711406,354.902535 491.77138,354.37313 C490.04438,354.02198 485.48312,351.5693 483.83645,352.22149 C480.78831,353.42876 479.98833,367.6289 479.36353,370.90041 Z" id="Path" fill="#000000" fill-rule="nonzero" opacity="0.1"></path>
            <circle id="Oval" fill="#FFB8B8" fill-rule="nonzero" cx="510" cy="328.19614" r="47"></circle>
            <path d="M485.95552,433.4648 C488.40516,436.02523 491.0009,438.56044 494.21084,440.06139 C497.478823,441.412037 500.988447,442.080271 504.52411,442.02504 C512.9963,442.26336 522.18072,440.71097 528.07439,434.62004 C535.67163,426.76852 535.42139,414.10474 541.37639,404.94488 C541.856202,404.114406 542.510983,403.398289 543.29529,402.84623 C544.294153,402.302425 545.422993,402.042885 546.55906,402.09583 C554.07997,402.02552 560.63142,406.90338 566.54406,411.55197 C569.19278,413.63443 571.9074,415.79186 573.5784,418.71763 C574.747491,420.998753 575.548106,423.450566 575.95052,425.98204 C578.88465,440.30519 579.8349,454.95012 580.77798,469.54026 C581.29888,477.59905 581.82003,485.6656 581.78133,493.74112 C581.65379,520.34653 575.46982,546.507 569.32033,572.39227 C568.52797,575.72759 567.44363,579.45568 564.4105,581.05327 C563.058473,581.661174 561.606301,582.015609 560.12624,582.09894 C542.51281,584.1675 524.86293,586.23856 507.13055,586.51166 C500.21055,586.61824 493.29355,586.45073 486.37955,586.00913 C485.189333,585.993408 484.009267,585.787687 482.88394,585.39974 C481.356644,584.666402 480.044135,583.5518 479.07306,582.16348 C469.4814,570.07672 468.91524,553.36659 468.97654,537.93655 C469.12644,500.21143 470.474307,462.516453 473.02014,424.85162 C473.23034,421.7428 473.27623,417.96718 471.03614,415.52162 C475.06954,421.97867 480.67962,427.95028 485.95552,433.4648 Z" id="Path" fill="#D0CDE1" fill-rule="nonzero"></path>
            <path d="M476,379.19614 C474.4126,382.06961 462.70938,389.20494 460.44995,391.58651 C447.82619,404.89271 424.78601,404.39341 413.24067,418.64541 C409.17867,423.65972 407.06822,429.96012 405.51607,436.22384 C403.32083,445.08278 402.14866,454.74426 405.82607,463.09747 C409.3646,471.13513 416.8136,476.69192 421.87099,483.87162 C427.42393,491.75483 429.92065,501.32667 432.31332,510.66773 C434.07998,517.56483 435.86125,524.63273 435.17323,531.71921 C434.39096,539.77634 430.49204,547.15383 428.19001,554.91462 C425.88798,562.67541 425.49065,571.91862 430.8133,578.01769 C434.72368,582.49849 440.8572,584.27484 446.7198,585.27412 C454.22867,586.402386 461.800562,587.061557 469.39144,587.2478 C476.09319,587.5439 483.48044,587.60147 488.63244,583.30516 C492.6976,579.91516 494.46444,574.41402 494.69313,569.12579 C494.92182,563.83756 493.82156,558.59616 493.13238,553.34805 C492.41795,547.9076 492.14338,542.41975 491.91368,536.9374 C490.88296,512.338787 490.742313,487.724363 491.49174,463.09413 C491.64785,457.96892 491.83718,452.78077 490.74434,447.771 C489.30706,441.1823 485.74617,435.294 482.77494,429.24024 C476.8774,417.22418 474.08832,405.55149 474.99994,392.19614 C475.89984,379.01383 481.64862,368.97086 476,379.19614 Z" id="Path" fill="#3676D9" fill-rule="nonzero"></path>
            <path d="M542,380.19614 C544.41788,382.68119 552.63379,383.50042 555.70952,385.10083 C558.602649,386.437314 561.621597,387.482571 564.72174,388.22115 C575.940972,391.457738 586.612492,396.355582 596.38154,402.75186 C598.411326,403.939385 600.205867,405.489441 601.67594,407.32496 C603.39665,409.71871 604.02123,412.7056 604.60461,415.59533 C606.11061,423.05545 607.62419,430.60551 607.28576,438.2086 C606.92652,446.2792 604.49551,454.0956 602.08376,461.80579 L593.07249,490.61507 C586.34616,512.11918 579.57717,533.835 577.68449,556.28692 C576.637398,568.73031 577.102965,581.25476 579.071,593.58607 C579.269,594.8258 579.43512,596.24686 578.61648,597.1987 C578.02279,597.785537 577.241667,598.144949 576.40976,598.21406 C572.0605,598.89412 567.85148,596.67651 563.91093,594.71424 C551.866868,588.720525 539.013312,584.514748 525.75578,582.2296 C530.936408,574.742758 534.933513,566.502954 537.60664,557.79973 C539.124773,552.273424 540.320307,546.663525 541.18719,540.99843 L545.37919,516.75328 C547.084684,507.891557 548.285286,498.940087 548.97519,489.94215 C549.292087,486.565419 549.095357,483.160161 548.3917,479.84239 C547.425652,476.685083 546.142921,473.633514 544.56307,470.73422 C537.65451,456.36367 534.41298,439.9643 537.13124,424.25278 C538.32083,417.37695 540.63256,410.49192 539.6686,403.58086 C538.74179,396.93615 539.705,391.77205 538.00013,385.19614 C531,358.19614 537.45114,375.52097 542,380.19614 Z" id="Path" fill="#3676D9" fill-rule="nonzero"></path>
            <path d="M413.12112,441.36641 C409.97158,447.90215 404.70606,453.47 402.91392,460.5002 C402.216559,463.785814 401.917737,467.143503 402.02392,470.50063 C401.98145,475.56029 401.95392,480.72255 403.50751,485.53796 C404.50776,488.63816 406.13505,491.49723 407.30737,494.53654 C408.941505,498.782743 409.669526,503.323774 409.44468,507.86801 C409.12839,514.16356 406.98963,520.27466 406.82248,526.57594 C406.55963,536.48523 411.14296,545.80078 415.61521,554.64736 C417.893709,549.004858 422.546399,544.655633 428.329538,542.762304 C434.112676,540.868974 440.436626,541.624582 445.61089,544.82714 C446.79068,543.73758 446.91667,541.9484 446.96283,540.34314 C447.29341,528.846833 447.61228,517.350197 447.91944,505.85323 C448.40354,488.07242 448.86472,470.05401 444.77444,452.74328 C442.92769,444.92744 440.05415,437.1418 434.78634,431.07964 C432.01255,427.88764 422.59625,419.4797 418.04299,423.05564 C415.99536,424.66374 416.47393,429.04118 416.14948,431.25781 C415.659767,434.761698 414.638575,438.170415 413.12112,441.36641 L413.12112,441.36641 Z" id="Path" fill="#3676D9" fill-rule="nonzero"></path>
            <path d="M608.20643,422.53197 C609.69606,427.17068 609.78517,432.12722 609.81484,436.99916 C609.87536,446.937393 609.74365,456.874313 609.41971,466.80992 C609.25385,471.89631 609.02548,477.05278 607.48322,481.90256 C606.46612,485.10093 604.89654,488.10019 603.84613,491.28778 C600.69813,500.84078 602.41813,511.20196 602.68803,521.25668 C602.878604,524.510988 602.600884,527.7758 601.86337,530.95116 C600.20205,537.1843 595.73737,542.22087 592.62126,547.86904 C589.66179,553.23326 587.87607,559.24596 584.34149,564.24996 C580.80691,569.25396 574.68821,573.21902 568.75749,571.68286 C564.26386,570.51892 561.07086,566.54142 558.86229,562.45858 C554.042893,553.481654 552.394616,543.140796 554.18435,533.11041 C556.40164,520.90684 563.56996,510.08068 566.15517,497.94972 C569.70523,481.29122 564.30974,464.10096 564.47031,447.06915 C564.397075,444.399347 564.759203,441.735441 565.54247,439.18207 C566.89847,435.29167 569.81084,432.1849 572.50132,429.06476 C575.863386,425.165558 578.986637,421.066657 581.85398,416.79049 C583.78011,413.91792 586.3961,406.5297 589.81098,405.91539 C597.43514,404.54386 606.31489,416.64168 608.20643,422.53197 Z" id="Path" fill="#3676D9" fill-rule="nonzero"></path>
            <path d="M373.56045,588.57727 C369.344404,587.517626 365.000345,587.055832 360.65575,587.20544 C351.421499,587.715875 342.852244,592.171205 337.130173,599.436866 C331.408101,606.702528 329.085421,616.077348 330.75361,625.174 C331.806375,630.045022 333.527155,634.747216 335.86713,639.14718 C339.28948,646.09246 343.39413,653.0218 349.72979,657.4725 C353.43599,660.07605 357.72547,661.69933 361.96397,663.29605 L395.33267,675.86662 C400.24158,677.71589 405.15122,679.56543 410.10873,681.28018 C435.0147,689.888978 460.981026,695.051142 487.28592,696.62318 C495.29834,697.1003 503.43206,697.23307 511.24865,695.40895 C513.10358,694.97607 515.08224,694.33077 516.15619,692.75763 C516.792229,691.649444 517.167232,690.41083 517.25269,689.13595 L519.30601,674.76132 C519.59513,672.73732 519.87331,670.60685 519.13149,668.7016 C518.19087,666.28576 515.83309,664.76603 513.585,663.47484 C491.64744,650.87499 466.03271,643.92375 447.56756,626.63067 C443.22056,622.5596 439.58282,616.10654 434.30127,613.34115 C428.31206,610.20522 421.25863,608.41544 415.06795,605.52573 C401.53437,599.20846 388.22826,591.94896 373.56045,588.57727 Z" id="Path" fill="#2F2E41" fill-rule="nonzero"></path>
            <path d="M406.87425,607.95635 C418.66868,611.65207 468.4648,637.25647 477,646.19614 C475.85593,646.60833 437.039,624.85472 435.87422,624.50514 C425.28666,621.32759 414.64022,618.12919 404.58578,613.47898 C402.56311,612.54348 391.44525,608.14641 391.94878,605.59434 C392.51691,602.71452 404.78042,607.30025 406.87425,607.95635 Z" id="Path" fill="#000000" fill-rule="nonzero" opacity="0.1"></path>
            <path d="M554.0172,704.07826 C554.686512,704.127346 555.350889,703.931818 555.88691,703.528 C556.361863,702.917958 556.572377,702.142949 556.47133,701.37645 C556.45301,694.848663 556.434697,688.32088 556.41639,681.7931 C550.78496,679.11001 544.48582,678.24998 538.30287,677.42353 L509.45421,673.56745 C510.11702,673.65605 504.94357,685.99279 505.73681,687.63979 C507.13492,690.54263 517.81955,693.11534 520.835,694.48594 C531.31779,699.25062 542.21076,704.48882 554.0172,704.07826 Z" id="Path" fill="#FFB8B8" fill-rule="nonzero"></path>
            <path d="M463.505,681.72533 C458.05812,682.59289 451.97869,683.35978 448.4512,687.59983 C443.97788,692.97678 445.8822,700.99247 448.01613,707.65345 C448.333217,709.000933 448.969617,710.252433 449.87168,711.30245 C451.32798,712.73912 453.55962,712.94961 455.60123,713.07889 C460.56871,713.39343 465.85511,713.63989 470.19538,711.20329 C472.1613,709.904119 474.053928,708.497308 475.86461,706.98929 C479.065186,704.8596 482.583357,703.251139 486.28795,702.22388 C493.098276,700.081688 500.108631,698.636973 507.21102,697.91199 C510.009598,697.784491 512.779997,697.296136 515.45349,696.45904 C518.07238,695.47257 520.49735,693.5165 521.25815,690.82337 C522.26351,687.26452 520.19515,683.63614 518.21136,680.51505 C515.74022,676.62712 513.12224,672.53335 509.43764,669.67121 C504.06225,665.49569 501.40321,668.70106 495.98852,671.37307 C485.740192,676.43105 474.790161,679.920744 463.505,681.72533 L463.505,681.72533 Z" id="Path" fill="#FFB8B8" fill-rule="nonzero"></path>
            <path d="M449.27064,686.6316 L414.68494,676.40927 C410.47867,675.16604 406.20054,673.91194 401.81438,673.915184 C397.42822,673.91844 392.83921,675.35659 389.99457,678.69519 C387.31269,681.8428 386.54508,686.14471 385.87649,690.2255 L384.44629,698.95492 C383.71948,703.39111 382.99134,707.91262 383.64552,712.3601 C384.2997,716.80758 386.57008,721.2509 390.5163,723.4039 C395.3023,726.01505 401.16812,724.73968 406.50956,723.64749 C417.298866,721.442136 428.273058,720.265314 439.28465,720.13284 C443.42437,720.08333 447.76644,720.13519 451.42446,718.19646 C455.77273,715.89191 458.37412,711.01906 458.82146,706.11821 C459.502,698.66136 457.01653,688.92107 449.27064,686.6316 Z" id="Path" fill="#2F2E41" fill-rule="nonzero"></path>
            <path d="M567.6123,677.72348 C572.09582,676.93768 576.05277,674.38948 580.34895,672.88548 C586.39604,670.7684 592.94917,670.76843 599.35611,670.79181 C601.70811,670.80039 604.21272,670.85313 606.17054,672.15654 C608.99269,674.03538 609.716,677.79535 610.19587,681.15154 L613.09111,701.40116 C613.63568,705.2099 614.17702,709.12055 613.32762,712.8731 C612.47822,716.62565 609.9204,720.24329 606.1967,721.21134 C601.67414,722.38708 597.24057,719.49807 592.97042,717.60027 C582.29753,712.85686 569.89092,714.06927 558.76251,710.52396 C556.6973,709.86603 554.48545,708.85996 553.64295,706.86296 C553.262299,705.738253 553.126498,704.545163 553.24465,703.36368 C553.43522,696.85485 552.06242,687.96693 554.02203,681.74633 C555.78436,676.152 562.60755,677.72348 567.6123,677.72348 Z" id="Path" fill="#2F2E41" fill-rule="nonzero"></path>
            <path d="M640.80315,580.42684 C647.713919,578.693912 654.877903,578.20445 661.96015,578.98134 C667.61623,579.60446 673.44373,581.17834 677.57332,585.09318 C682.5996,589.85812 684.21456,597.22718 684.34932,604.15181 C684.570269,617.943889 679.995861,631.384848 671.40746,642.17881 C669.310231,644.908918 666.816229,647.309789 664.00832,649.30165 C660.97929,651.196461 657.750951,652.752203 654.38159,653.94079 L579.65378,683.41562 C559.99453,691.16981 540.26591,698.94645 519.76027,704.0584 C518.627663,704.605166 517.322341,704.671758 516.139972,704.243091 C514.957603,703.814424 513.998241,702.926773 513.47919,701.7812 C506.931847,692.428924 501.439033,682.381146 497.10094,671.82114 C496.684044,671.311825 496.541599,670.631258 496.719245,669.997503 C496.896892,669.363748 497.372325,668.856377 497.99321,668.63796 L550.84879,638.26877 C554.63479,636.09342 558.46311,633.88677 561.60679,630.85633 C563.8911,628.64255 565.761558,626.038491 567.13002,623.16687 C568.22563,620.87848 568.32784,615.47822 569.72729,613.78675 C571.09747,612.13066 575.78465,611.9985 577.94943,611.34713 C581.002456,610.411957 583.992298,609.281753 586.90051,607.96349 C598.7239,602.67409 609.25245,594.98886 620.58677,588.79549 C626.943851,585.160816 633.73706,582.34874 640.80315,580.42684 L640.80315,580.42684 Z" id="Path" fill="#2F2E41" fill-rule="nonzero"></path>
            <path d="M610.83876,603.10644 C601.758,609.92673 590,616.19614 581,623.19614 C577.9284,625.58514 526.724,654.3728 526,658.19614 C534.39649,659.6109 587.883,622.19306 595.53554,618.45936 C603.18808,614.72566 609.97187,609.46036 616.69398,604.23389 C618.40706,602.90197 625.66705,598.898 620.74936,597.40989 C617.97906,596.57162 612.884,601.74296 610.83876,603.10644 Z" id="Path" fill="#000000" fill-rule="nonzero" opacity="0.1"></path>
            <polygon id="Path" fill="#2F2E41" fill-rule="nonzero" points="561.025 286.538 520.595 265.361 464.764 274.024 453.212 325.043 481.967 323.937 490 305.193 490 323.628 503.268 323.117 510.969 293.277 515.782 325.043 562.95 324.08"></polygon>
            <rect id="Rectangle" fill="#3F3D56" fill-rule="nonzero" x="465" y="391.19614" width="87" height="105"></rect>
            <path d="M514.791247,417 L514.791247,431.25 L529.541247,431.25 L529.541247,441.75 L514.791247,441.75 L514.791247,471.944647 L504.291247,471.944647 L504.291247,441.749 L489.541247,441.75 L489.541247,431.25 L504.291247,431.249 L504.291247,417 L514.791247,417 Z" id="Combined-Shape" fill="#F2F2F2"></path>
            <path d="M423.69854,573.81871 C425.69608,576.80079 428.0366,579.71771 431.24515,581.32644 C435.391168,583.220032 440.179515,583.091696 444.21815,580.97874 C448.198433,578.844564 451.456474,575.578022 453.58027,571.59219 C457.97418,563.83319 458.88416,554.54873 458.33586,545.64884 C457.78756,536.74895 455.88725,527.98538 455.04619,519.10838 C454.43479,512.65538 454.38507,506.16395 454.33583,499.68226 C454.184038,498.319241 454.469959,496.94328 455.1522,495.75357 C456.12542,494.42457 457.90733,494.05839 459.48636,493.58924 C468.35425,490.95445 474.24051,482.64251 478.46054,474.41007 C481.27837,468.91307 483.72871,462.90407 483.18533,456.7508 C482.64195,450.59753 478.21904,444.3987 472.07382,443.77099 C467.00753,443.25348 462.32959,446.47134 458.67505,450.01809 C449.455986,459.021242 443.531102,470.862159 441.85238,483.6383 C441.05016,489.89477 441.27994,496.3215 439.57823,502.3953 C435.94475,515.36404 424.5763,523.31525 418.91093,534.9848 C412.66827,547.84338 416.11372,562.44148 423.69854,573.81871 Z" id="Path" fill="#FFB8B8" fill-rule="nonzero"></path>
            <path d="M590.9919,524.27276 C588.38007,530.349171 583.423254,535.112044 577.24749,537.4794 C573.447892,539.005606 569.256648,539.262301 565.2992,538.21118 C561.321226,537.10763 558.084949,534.212943 556.54633,530.38218 C555.940848,528.478547 555.608888,526.498547 555.5604,524.50153 C554.99186,515.75594 555.21155,506.74388 558.38826,498.57584 C559.61351,495.42542 561.26555,492.43764 562.23252,489.1986 C563.182822,485.457751 563.668992,481.614141 563.68006,477.75449 L564.72435,453.89217 C564.897046,452.159804 564.777223,450.41073 564.36989,448.7181 C563.32826,445.26536 560.10132,443.02155 557.14046,440.96249 C549.98981,435.98974 542.92351,430.18707 539.45855,422.19619 C538.26815,419.790295 537.841826,417.077944 538.23675,414.42287 C539.21375,409.68448 543.99566,406.61687 548.72206,405.58344 C554.971067,404.217055 561.507041,405.462301 566.815864,409.030705 C572.124686,412.599108 575.745699,418.181031 576.84006,424.48337 C577.30767,427.17628 577.30124,429.927 577.57494,432.64647 C578.15551,438.41512 579.98684,443.97578 581.1325,449.65927 C583.9545,463.65888 582.49221,478.13044 585.28283,492.12767 C587.61613,503.83092 596.41438,511.4674 590.9919,524.27276 Z" id="Path" fill="#FFB8B8" fill-rule="nonzero"></path>
            <path d="M52.63086,670.21567 L50.63086,670.17661 C51.4043877,647.939219 53.7770511,625.786312 57.73047,603.8895 C66.37891,557.00864 80.75977,526.21958 100.47363,512.37778 L101.62207,514.0145 C55.57031,546.34848 52.6543,668.98032 52.63086,670.21567 Z" id="Path" fill="#2F2E41" fill-rule="nonzero"></path>
            <path d="M77.63086,669.73716 L75.63086,669.69809 C75.67386,667.48325 76.92386,615.28403 97.47363,600.8563 L98.62207,602.49302 C78.90137,616.33872 77.64063,669.20493 77.63086,669.73716 Z" id="Path" fill="#2F2E41" fill-rule="nonzero"></path>
            <circle id="Oval" fill="#3676D9" fill-rule="nonzero" cx="113" cy="504.19614" r="10"></circle>
            <circle id="Oval" fill="#3676D9" fill-rule="nonzero" cx="108.04785" cy="590.19614" r="10"></circle>
            <path d="M72.96963,520.19075 C74.84898,532.19475 69.95072,542.93138 69.95072,542.93138 C69.95072,542.93138 62.00543,534.20557 60.12608,522.20154 C58.24673,510.19751 63.14498,499.46091 63.14498,499.46091 C63.14498,499.46091 71.09027,508.18671 72.96963,520.19075 Z" id="Path" fill="#2F2E41" fill-rule="nonzero"></path>
            <path d="M105.6568,549.3445 C94.1638,553.2867 82.73802,550.33412 82.73802,550.33412 C82.73802,550.33412 89.94595,540.98998 101.4389,537.04778 C112.93185,533.10558 124.35769,536.05816 124.35769,536.05816 C124.35769,536.05816 117.14975,545.4023 105.6568,549.3445 Z" id="Path" fill="#2F2E41" fill-rule="nonzero"></path>
            <path d="M106.02605,625.50564 C100.824419,627.139449 95.2849425,627.378643 89.96184,626.19929 C96.8660678,617.409027 108.287744,613.491273 119.13384,616.19299 C115.655362,620.391375 111.135357,623.602688 106.02605,625.50564 L106.02605,625.50564 Z" id="Path" fill="#2F2E41" fill-rule="nonzero"></path>
        </g>
    </g>
</svg>