<svg class="illustration" width="1155" height="700" viewBox="0 0 1155 700" fill="none" xmlns="http://www.w3.org/2000/svg">
<path d="M656.465 253.226C653.752 251.394 650.945 249.678 648.093 248.031C627.381 236.179 603.421 229.406 577.839 229.406C552.256 229.406 528.297 236.179 507.585 248.031C504.732 249.678 501.925 251.417 499.188 253.25C461.197 278.647 436.194 321.949 436.194 371.074C436.194 407.929 450.296 441.513 473.374 466.702C481.399 475.492 490.514 483.262 500.534 489.78C522.753 504.299 549.31 512.718 577.839 512.718C606.367 512.718 632.924 504.299 655.143 489.78C665.163 483.262 674.278 475.492 682.303 466.702C705.381 441.513 719.483 407.929 719.483 371.074C719.483 321.949 694.48 278.647 656.465 253.226ZM653.056 371.723C646.771 373.254 640.508 374.228 634.246 375.133C627.983 375.921 621.698 376.617 615.436 377.058C609.173 377.522 602.911 377.846 596.649 377.87C593.541 377.893 590.456 377.846 587.348 377.731C585.261 380.723 581.781 382.694 577.839 382.694C571.414 382.694 566.218 377.475 566.218 371.074C566.218 366.667 568.654 362.84 572.272 360.869C572.55 355.627 572.782 350.408 572.968 345.166C573.293 336.724 573.664 328.235 574.128 319.792C574.128 319.607 574.151 319.445 574.151 319.259C574.29 316.429 574.429 313.6 574.591 310.77C574.893 304.972 575.241 299.173 575.566 293.375C576.053 284.724 576.563 276.095 577.189 267.467H578.488C579.114 276.095 579.601 284.724 580.088 293.375C580.413 299.173 580.784 304.972 581.086 310.77C581.248 313.6 581.387 316.429 581.526 319.259C581.526 319.445 581.55 319.607 581.55 319.792C582.014 328.235 582.385 336.724 582.709 345.166C582.895 350.385 583.127 355.627 583.382 360.846C584.959 361.727 586.328 362.933 587.348 364.417C590.456 364.278 593.541 364.232 596.649 364.255C602.911 364.278 609.173 364.603 615.436 365.067C621.698 365.507 627.983 366.203 634.246 366.992C640.508 367.896 646.771 368.87 653.056 370.401V371.723V371.723Z" fill="#3273dc"/>
<path fill-rule="evenodd" clip-rule="evenodd" d="M741.332 219.721L747.78 226.168C763.645 242.01 763.645 267.708 747.78 283.573L730.106 301.247C739.871 322.515 745.322 346.15 745.322 371.083C745.322 417.355 726.558 459.243 696.22 489.557L716.724 523.234C723.891 534.97 715.425 550 701.694 550C695.548 550 689.842 546.799 686.665 541.557L668.573 511.869C642.434 528.755 611.285 538.542 577.839 538.542C544.394 538.542 513.245 528.755 487.105 511.869L469.014 541.557C465.813 546.799 460.108 550 453.984 550C440.231 550 431.788 534.97 438.932 523.234L459.458 489.557C429.121 459.243 410.357 417.355 410.357 371.083C410.357 346.15 415.807 322.515 425.572 301.247L407.898 283.573C392.034 267.708 392.034 242.01 407.898 226.168L414.346 219.721C430.188 203.856 455.886 203.856 471.751 219.721L484.206 232.199H484.229C488.775 229.114 493.483 226.261 498.331 223.64V223.617C501.462 182.495 535.928 150 577.839 150C619.727 150 654.193 182.495 657.324 223.617C662.172 226.261 666.903 229.114 671.449 232.199H671.472L683.928 219.721C699.769 203.856 725.468 203.856 741.332 219.721ZM647.699 218.839C642.434 184.999 613.094 159.046 577.839 159.046C542.562 159.046 513.245 184.999 507.98 218.839C529.248 209.051 552.906 203.601 577.839 203.601C602.773 203.601 626.43 209.051 647.699 218.839ZM655.144 489.789C665.164 483.271 674.279 475.502 682.304 466.711C705.382 441.523 719.484 407.938 719.484 371.083C719.484 321.959 694.481 278.656 656.466 253.236C653.753 251.403 650.946 249.687 648.093 248.04C627.381 236.188 603.422 229.415 577.839 229.415C552.257 229.415 528.297 236.188 507.585 248.04C504.732 249.687 501.926 251.426 499.189 253.259C461.198 278.656 436.195 321.959 436.195 371.083C436.195 407.938 450.297 441.523 473.374 466.711C481.4 475.502 490.515 483.271 500.534 489.789C522.754 504.308 549.311 512.728 577.839 512.728C606.368 512.728 632.924 504.308 655.144 489.789ZM596.65 364.257C602.912 364.28 609.174 364.605 615.437 365.069C621.699 365.509 627.984 366.205 634.247 366.994C640.509 367.898 646.771 368.872 653.057 370.403V371.725C646.771 373.256 640.509 374.23 634.247 375.135C627.984 375.923 621.699 376.619 615.437 377.06C609.174 377.524 602.912 377.848 596.65 377.871C593.542 377.895 590.457 377.848 587.349 377.732C585.261 380.724 581.782 382.696 577.839 382.696C571.415 382.696 566.219 377.477 566.219 371.076C566.219 366.669 568.655 362.842 572.273 360.87C572.551 355.629 572.783 350.41 572.969 345.168C573.293 336.726 573.665 328.237 574.128 319.794C574.128 319.701 574.134 319.614 574.14 319.527C574.146 319.44 574.152 319.354 574.152 319.261C574.291 316.431 574.43 313.602 574.592 310.772C574.794 306.902 575.015 303.032 575.237 299.162C575.348 297.234 575.458 295.305 575.566 293.376C576.054 284.725 576.564 276.097 577.19 267.469H578.489C579.115 276.097 579.602 284.725 580.089 293.376C580.219 295.695 580.356 298.013 580.494 300.331C580.7 303.812 580.906 307.292 581.087 310.772C581.249 313.602 581.388 316.431 581.527 319.261C581.527 319.354 581.533 319.44 581.539 319.527C581.545 319.614 581.55 319.701 581.55 319.794C582.014 328.237 582.385 336.726 582.71 345.168C582.896 350.387 583.128 355.629 583.383 360.847C584.96 361.729 586.328 362.935 587.349 364.419C590.457 364.28 593.542 364.233 596.65 364.257Z" fill="#7ca5e8"/>
</svg>