<svg class="illustration" width="1155" height="700" viewBox="0 0 1155 700" fill="none" xmlns="http://www.w3.org/2000/svg">
<rect x="429" y="374" width="246" height="42" rx="3" fill="#FF8585"/>
<path d="M429 406.5C429 404.843 430.343 403.5 432 403.5H480L675 416H432C430.343 416 429 414.657 429 413V406.5Z" fill="#121212" fill-opacity="0.08"/>
<rect x="411" y="416" width="271" height="42" rx="3" fill="#FFBCA7"/>
<path d="M411 446.5C411 444.843 412.343 443.5 414 443.5H494.5L682 458H414C412.343 458 411 456.657 411 455V446.5Z" fill="black" fill-opacity="0.06"/>
<rect x="380" y="458" width="295" height="42" rx="3" fill="#8DA6FF"/>
<path d="M380 488C380 486.343 381.343 485 383 485H422.5L675 500H383C381.343 500 380 498.657 380 497V488Z" fill="black" fill-opacity="0.09"/>
<rect x="420" y="500" width="262" height="56" rx="3" fill="#6587FF"/>
<path d="M420 531L482.5 536L682 556H420V531Z" fill="black" fill-opacity="0.09"/>
<rect x="388" y="556" width="287" height="42" rx="3" fill="#322FD1"/>
<path d="M388 560.218C388 558.154 390.035 556.707 391.984 557.384L435.175 572.387C435.391 572.462 435.615 572.512 435.842 572.536L675 598H391C389.343 598 388 596.657 388 595V560.218Z" fill="black" fill-opacity="0.04"/>
<path fill-rule="evenodd" clip-rule="evenodd" d="M764.744 199.682L773.914 187L786.145 217.936L784.138 220.35L746.576 267.217L738.662 261.102L716 242.756L757.727 193.475L764.744 199.682Z" fill="#2644E0"/>
<path d="M762.743 198.104L767.187 193.256L771.63 191.64L785.365 217.09H784.558L762.743 198.104Z" fill="#E2FAFF"/>
<path d="M767.187 193.256L784.557 217.09H785.365L771.63 191.64L767.187 193.256Z" fill="black" fill-opacity="0.12"/>
<path d="M757.895 193.084L716.286 242.368L747.796 267.818L785.365 218.13L757.895 193.084Z" fill="white" fill-opacity="0.09"/>
<path d="M775.566 536.727C773.822 534.402 769.634 510.244 766 494.5L759.822 466.484L783.64 460.429C783.64 460.429 789.5 505 804 513.5C815.281 520.113 836.524 516.901 841.772 520.983C849.758 527.194 834.506 533.094 824.01 534.709C816.217 535.908 800.999 539.553 800.999 539.553C778.5 546 777.989 539.957 775.566 536.727Z" fill="#1E2884"/>
<path d="M779.5 545L778 540C794.4 540 828.833 529.667 844 524.5C846.4 532.5 802 541.5 779.5 545Z" fill="#FFB74B"/>
<path d="M697.653 538.342C697.653 527.442 700.076 505.281 697.653 485.5V461.5L722.683 468.907C722.683 474.155 723.975 482.594 722.683 485.5C721.391 488.407 719.263 503.699 724.5 515.5C731.524 531.328 759.015 537.131 759.823 542.783C760.63 548.434 733.986 545.205 729.545 545.205C725.105 545.205 697.653 545.62 697.653 538.342Z" fill="#1E2884"/>
<path d="M697.5 543V539C704.7 541.4 742.333 542.667 760 543L759 546C752.2 548.4 715 545 697.5 543Z" fill="#FFB74B"/>
<path fill-rule="evenodd" clip-rule="evenodd" d="M660.513 323.98C684.197 327.479 737.135 339.805 759.418 361.12C776.239 393.55 792.925 474.72 791.31 489.899C790.721 490.296 790.149 490.684 789.592 491.06C779.22 498.081 774.286 501.421 765.474 497.973C761.802 481.253 749.765 453.138 740.061 430.474C737.382 424.216 734.881 418.374 732.783 413.302L730.353 443.877L722.683 504.028C712.994 510.891 710.168 510.487 698.461 504.028L690.557 391.114C648.612 384.797 599.03 376.033 595.115 370.405C589.948 362.977 589.194 350.355 589.463 344.973L660.513 323.98Z" fill="
#3273dc"/>
<path d="M698.46 504.028L690.5 390.5C712.745 395.034 722.194 400.027 733 414L730.352 443.877L722.682 504.028C712.993 510.891 710.168 510.487 698.46 504.028Z" fill="black" fill-opacity="0.19"/>
<path fill-rule="evenodd" clip-rule="evenodd" d="M624.392 171.878C629.73 172.855 634.669 172.972 636.906 170.883C642.962 165.231 649.421 150.86 641.347 117.595C629.236 113.828 603.642 112.267 598.152 136.165C596.941 143.701 596.618 160.225 605.014 166.039C604.072 173.305 601.785 188.968 600.17 193.49C598.152 199.142 623.584 205.285 624.392 196L624.351 195.666C623.672 190.106 622.537 180.819 624.392 171.878ZM687.95 298.192C687.95 298.192 721.458 290.386 761.849 259.474C770.765 252.651 781.042 239.27 770.394 235.908C765.375 234.323 752.921 245.726 752.921 245.726C752.921 245.726 754.871 228.066 750.287 234.149C748.829 236.083 739.906 255.528 739.906 255.528L686.442 273.746L687.95 298.192Z" fill="#F6BDBD"/>
<path d="M648.379 123.088C642.243 131.162 631.851 130.745 626.199 129.4C617.802 128.845 621.893 143.849 621.759 150.54C621.759 150.54 608.211 138.429 611.239 150.54C614.267 162.65 611.239 168.302 604.78 164.265C602.726 162.981 598.724 158.613 596.706 154.576C594.687 150.54 589.439 142.062 594.284 124.299C598.428 109.105 616.077 109.766 628.194 109.766C636.695 109.766 645.577 99.1227 654.458 102.756C663.339 106.389 656.049 112.996 648.379 123.088Z" fill="black" stroke="black" stroke-width="0.807388"/>
<path d="M577.756 300.97C572.911 221.846 592.289 176.632 609.244 178.247C624.584 178.247 637.099 195.606 637.099 206.909C637.099 206.909 654.275 262.358 668.587 265.041C675.046 266.252 687.561 266.252 687.561 266.252L709.764 265.041C713.666 274.999 719.856 293.703 714.204 299.355C708.987 304.572 692.943 302.988 687.561 303.392C687.561 303.392 675.693 304.593 662.128 303.63L676 326.5C657.699 340.36 612.958 371.213 593.903 371.213C581.631 366.045 577.756 363.139 577.756 300.97Z" fill="
#7ca5e8"/>
<path d="M611.262 221.846C611.262 221.846 609.902 268.412 626.199 290.474C632.823 299.441 648.351 302.651 662.128 303.63C675.693 304.593 687.561 303.392 687.561 303.392C692.943 302.988 708.987 304.573 714.204 299.355" stroke="white" stroke-width="0.807388"/>
<path d="M285 598H868.5" stroke="black" stroke-opacity="0.1" stroke-width="3"/>
<path d="M355.449 545.886C355.448 514.981 355.449 436 355.449 436C355.449 436 377.426 503.992 385.667 541.079C388.886 555.562 376.052 578.852 376.052 578.852C376.052 578.852 355.449 561.136 355.449 545.886Z" fill="#2C8B74"/>
<path d="M367.124 493.69L362.316 458.664L381.546 525.282L367.124 493.69Z" fill="black" fill-opacity="0.05"/>
<path d="M355.448 495.064C357.097 504.953 371.473 551.609 378.799 573.357L376.052 578.165C363.69 569.237 357.509 556.875 355.448 547.946V495.064Z" fill="black" fill-opacity="0.18"/>
<path d="M378.799 597.395L356.135 438.06" stroke="black" stroke-width="0.686788"/>
<path d="M392.202 574.044C388.115 563.555 384.845 522.223 404.463 440.807C416.951 479.863 431.982 561.189 392.202 574.044Z" fill="#2C8B74"/>
<path d="M398.717 476.52C402.838 501.245 396.245 541.216 389.102 550.007C387.042 530.776 393.222 489.569 398.717 476.52Z" fill="black" fill-opacity="0.11"/>
<path d="M391.848 576.791C398.716 554.356 408.331 522.535 416.572 499.871C420.006 522.993 418.632 568.55 391.848 576.791Z" fill="black" fill-opacity="0.18"/>
<path d="M380.173 598.082C389.559 584.575 408.056 545.749 406.958 498.498C406.399 474.46 404.439 437.831 404.21 442.868" stroke="black" stroke-width="0.686788"/>
<path d="M340.339 563.056C346.383 581.187 364.606 588.009 380.173 597.395C380.173 597.395 368.752 569.949 356.135 556.874C341.187 541.384 308.747 528.716 308.747 528.716C308.747 528.716 334.296 544.924 340.339 563.056Z" fill="#183D45"/>
<path d="M380.173 597.395C361.63 575.189 332.098 539.018 314.241 531.463" stroke="white" stroke-width="0.412073"/>
<path d="M334.845 578.165C352.65 576.572 379.486 597.395 379.486 597.395C379.486 597.395 350.768 588.659 334.845 587.87C323.566 587.311 306 593.274 306 593.274C306 593.274 322.539 579.266 334.845 578.165Z" fill="#285964"/>
<path d="M307.373 592.588C307.373 592.588 325.476 582.009 338.278 581.599C354.657 581.074 377.425 596.708 377.425 596.708" stroke="white" stroke-width="0.274715"/>
<path d="M419.32 563.056C413.276 581.187 395.053 588.009 379.486 597.395C379.486 597.395 390.907 569.949 403.524 556.874C418.472 541.384 450.912 528.716 450.912 528.716C450.912 528.716 425.364 544.924 419.32 563.056Z" fill="#183D45"/>
<path d="M379.485 597.395C398.029 575.189 427.561 539.018 445.417 531.463" stroke="white" stroke-width="0.412073"/>
<path d="M424.814 578.165C407.01 576.572 380.173 597.395 380.173 597.395C380.173 597.395 408.892 588.659 424.814 587.87C436.094 587.311 453.659 593.274 453.659 593.274C453.659 593.274 437.12 579.266 424.814 578.165Z" fill="#285964"/>
<path d="M452.286 592.588C452.286 592.588 434.184 582.009 421.381 581.599C405.002 581.074 382.234 596.708 382.234 596.708" stroke="white" stroke-width="0.274715"/>
</svg>
