<?xml version="1.0" encoding="UTF-8"?>
<svg width="400px" height="331px" viewBox="0 0 400 331" version="1.1" xmlns="http://www.w3.org/2000/svg" xmlns:xlink="http://www.w3.org/1999/xlink">
    <!-- Generator: Sketch 60.1 (88133) - https://sketch.com/ -->
    <title>note-list</title>
    <desc>Created with Sketch.</desc>
    <g id="Page-1" stroke="none" stroke-width="1" fill="none" fill-rule="evenodd">
        <g id="note-list" transform="translate(26.586103, 22.000000)">
            <path d="M346.82781,273.736042 L346.82781,275.516439 C346.82781,277.431081 346.016258,279.256076 344.599204,280.543667 C343.18215,281.831258 341.288202,282.462293 339.382036,282.281948 C325.441268,280.957333 311.564595,278.493263 297.577536,278.924119 C271.789785,279.711055 245.788383,290.258127 220.826752,283.741873 C213.786932,281.904504 206.82545,278.710471 199.58266,279.397705 C193.08409,280.013722 187.301253,283.688462 181.005651,285.411886 C161.858906,290.667618 142.363195,277.385856 122.51496,277.923536 C109.432359,278.279615 96.9052526,284.649876 83.8368952,283.941278 C76.2629453,283.535347 69.0486423,280.76505 61.6598572,279.059429 C43.2644528,274.807841 24.3206759,277.182891 5.36621649,278.65706 C3.9837042,278.763034 2.61951441,278.288443 1.60130719,277.347278 C0.58309997,276.406113 0,275.083413 0,273.696873 L0,272.172854 C0,269.419652 2.23195205,267.187742 4.98520444,267.187742 L340.033673,266.917122 C341.839038,266.919952 343.569283,267.640076 344.843531,268.918975 C346.117779,270.197874 346.831576,271.930712 346.82781,273.736042 Z" id="Path" fill="#3F3D56" fill-rule="nonzero"></path>
            <path d="M346.82781,273.736042 L346.82781,275.516439 C346.82781,277.431081 346.016258,279.256076 344.599204,280.543667 C343.18215,281.831258 341.288202,282.462293 339.382036,282.281948 C325.441268,280.957333 311.564595,278.493263 297.577536,278.924119 C271.789785,279.711055 245.788383,290.258127 220.826752,283.741873 C213.786932,281.904504 206.82545,278.710471 199.58266,279.397705 C193.08409,280.013722 187.301253,283.688462 181.005651,285.411886 C161.858906,290.667618 142.363195,277.385856 122.51496,277.923536 C109.432359,278.279615 96.9052526,284.649876 83.8368952,283.941278 C76.2629453,283.535347 69.0486423,280.76505 61.6598572,279.059429 C43.2644528,274.807841 24.3206759,277.182891 5.36621649,278.65706 C3.9837042,278.763034 2.61951441,278.288443 1.60130719,277.347278 C0.58309997,276.406113 0,275.083413 0,273.696873 L0,272.172854 C0,269.419652 2.23195205,267.187742 4.98520444,267.187742 L340.033673,266.917122 C341.839038,266.919952 343.569283,267.640076 344.843531,268.918975 C346.117779,270.197874 346.831576,271.930712 346.82781,273.736042 Z" id="Path" fill="#000000" fill-rule="nonzero" opacity="0.1"></path>
            <path d="M346.82781,270.481476 L346.82781,272.261873 C346.82781,272.509261 346.814291,272.756465 346.788625,273.002519 C346.393703,276.707877 343.091925,279.406395 339.382036,279.055868 C325.441268,277.727692 311.564595,275.263623 297.577536,275.694479 C271.789785,276.484975 245.788383,287.032047 220.826752,280.512233 C213.786932,278.674864 206.82545,275.480831 199.58266,276.168065 C193.08409,276.784082 187.301253,280.458821 181.005651,282.185806 C161.858906,287.427295 142.363195,274.145533 122.51496,274.679653 C109.432359,275.035732 96.9052526,281.405993 83.8368952,280.700955 C76.2629453,280.291464 69.0486423,277.524727 61.6598572,275.815546 C43.2680137,271.567519 24.3206759,273.942568 5.36621649,275.416737 C2.81229182,275.613888 0.524594363,273.843496 0.0747780666,271.321824 C0.0235386669,271.032684 -6.27128353e-05,270.739509 -6.27128353e-05,270.445868 L-6.27128353e-05,268.921849 C-6.27128353e-05,266.168647 2.23195205,263.936737 4.98520444,263.936737 L88.9609732,263.869082 L260.526784,263.72665 L340.033673,263.662556 C341.839038,263.665386 343.569283,264.385511 344.843531,265.66441 C346.117779,266.943309 346.831576,268.676147 346.82781,270.481476 L346.82781,270.481476 Z" id="Path" fill="#3F3D56" fill-rule="nonzero"></path>
            <path d="M264.782012,264.748598 C264.782012,265.535533 263.229477,266.290422 260.366545,266.99902 C248.904136,269.829851 216.500307,271.870186 178.253106,271.870186 C140.625496,271.870186 108.6098,269.893945 96.7094053,267.130769 C93.504631,266.386563 91.7242008,265.585385 91.7242008,264.748598 C91.7242008,264.456613 91.9378524,264.168189 92.358034,263.883325 L263.923845,263.740893 C264.490022,264.072047 264.782012,264.392519 264.782012,264.748598 Z" id="Path" fill="#000000" fill-rule="nonzero" opacity="0.1"></path>
            <g id="Group" opacity="0.5" transform="translate(196.559489, 0.000000)" fill-rule="nonzero">
                <rect id="Rectangle" fill="#36334A" x="0" y="0" width="143.146585" height="43.0856079" rx="19.03"></rect>
                <rect id="Rectangle" fill="#3676D9" x="17.4482155" y="9.25806452" width="33.1160009" height="7.47766749"></rect>
                <rect id="Rectangle" fill="#3676D9" opacity="0.3" x="17.4482155" y="21.3647643" width="101.484519" height="3.91687345"></rect>
                <rect id="Rectangle" fill="#3676D9" opacity="0.3" x="17.4482155" y="29.91067" width="40.5938076" height="3.91687345"></rect>
            </g>
            <g id="Group" opacity="0.5" transform="translate(17.092130, 34.895782)" fill-rule="nonzero">
                <rect id="Rectangle" fill="#36334A" x="0" y="0.181600496" width="143.146585" height="43.0856079" rx="19.03"></rect>
                <rect id="Rectangle" fill="#36334A" x="17.4482155" y="9.43966501" width="33.1160009" height="7.47766749"></rect>
                <rect id="Rectangle" fill="#36334A" x="17.4482155" y="21.5463648" width="101.484519" height="3.91687345"></rect>
                <rect id="Rectangle" fill="#36334A" x="17.4482155" y="30.0922705" width="40.5938076" height="3.91687345"></rect>
                <rect id="Rectangle" fill="#36334A" x="0" y="0.181600496" width="143.146585" height="43.0856079" rx="19.03"></rect>
                <rect id="Rectangle" fill="#3676D9" x="17.4482155" y="9.43966501" width="33.1160009" height="7.47766749"></rect>
                <rect id="Rectangle" fill="#3676D9" opacity="0.3" x="17.4482155" y="21.5463648" width="101.484519" height="3.91687345"></rect>
                <rect id="Rectangle" fill="#3676D9" opacity="0.3" x="17.4482155" y="30.0922705" width="40.5938076" height="3.91687345"></rect>
            </g>
            <rect id="Rectangle" fill="#3F3D56" fill-rule="nonzero" x="237.715913" y="75.3250372" width="3.67124698" height="30.273871" rx="1.83562349"></rect>
            <rect id="Rectangle" fill="#3F3D56" fill-rule="nonzero" x="115.6425" y="51.6065881" width="2.06173812" height="9.96666253" rx="1.03086906"></rect>
            <rect id="Rectangle" fill="#3F3D56" fill-rule="nonzero" x="115.567721" y="69.8520968" width="2.32168092" height="17.3481886" rx="1.16084046"></rect>
            <rect id="Rectangle" fill="#3F3D56" fill-rule="nonzero" x="115.60333" y="93.2714392" width="2.21129425" height="17.4977419" rx="1.10564713"></rect>
            <rect id="Rectangle" fill="#3F3D56" fill-rule="nonzero" x="116.810462" y="18.6692432" width="122.885289" height="249.743412" rx="35.69"></rect>
            <rect id="Rectangle" fill="#E6E8EC" fill-rule="nonzero" x="166.399002" y="26.1291067" width="17.1597859" height="3.48601737" rx="1.74300868"></rect>
            <ellipse id="Oval" fill="#E6E8EC" fill-rule="nonzero" cx="188.130933" cy="27.870335" rx="1.97627747" ry="1.97624069"></ellipse>
            <path d="M232.107558,34.9349504 L232.107558,252.143387 C232.105592,257.532371 227.736324,261.899963 222.34724,261.899963 L134.158973,261.899963 C128.769889,261.899963 124.400621,257.532371 124.398655,252.143387 L124.398655,34.9349504 C124.398655,29.5445758 128.768498,25.1748139 134.158973,25.1748139 L147.355522,25.1748139 L147.355522,26.8875558 C147.357486,31.3252952 150.954561,34.9223031 155.392383,34.924268 L200.259223,34.924268 C204.690905,34.9144505 208.278291,31.3191658 208.278281,26.8875558 L208.278281,25.1926179 L222.34724,25.1926179 C227.730769,25.1926089 232.097737,29.55153 232.107558,34.9349504 L232.107558,34.9349504 Z" id="Path" fill="#36334A" fill-rule="nonzero"></path>
            <rect id="Rectangle" fill="#3F3D56" fill-rule="nonzero" x="127.478799" y="45.9342432" width="11.038667" height="1.42431762"></rect>
            <rect id="Rectangle" fill="#3F3D56" fill-rule="nonzero" x="127.478799" y="48.426799" width="11.038667" height="1.42431762"></rect>
            <rect id="Rectangle" fill="#3F3D56" fill-rule="nonzero" x="127.478799" y="50.9193548" width="11.038667" height="1.42431762"></rect>
            <rect id="Rectangle" fill="#3F3D56" fill-rule="nonzero" x="127.478799" y="45.9342432" width="11.038667" height="1.42431762"></rect>
            <rect id="Rectangle" fill="#3F3D56" fill-rule="nonzero" x="127.478799" y="48.426799" width="11.038667" height="1.42431762"></rect>
            <rect id="Rectangle" fill="#3F3D56" fill-rule="nonzero" x="127.478799" y="50.9193548" width="11.038667" height="1.42431762"></rect>
            <path d="M227.061819,49.4950372 L226.73778,49.4950372 L226.61315,49.3917742 C227.022482,48.9038795 227.246889,48.2874033 227.246984,47.6505459 C227.239096,46.1874474 226.046612,45.0077616 224.583486,45.0155956 C223.12036,45.0235079 221.940641,46.2159587 221.948461,47.6790574 C221.956359,49.142156 223.148821,50.3218648 224.611947,50.3140199 C225.246952,50.3095142 225.860869,50.08559 226.349647,49.6801985 L226.470716,49.7834615 L226.470716,50.1110546 L228.51465,52.1585112 L229.127118,51.5460546 L227.061819,49.4950372 Z M224.611947,49.4950511 C223.865265,49.4979201 223.190501,49.0503567 222.902758,48.3613508 C222.615015,47.6723448 222.771062,46.877831 223.298028,46.3488325 C223.824994,45.819834 224.618913,45.6607175 225.30904,45.9457874 C225.999167,46.2308573 226.449382,46.9038719 226.449382,47.6505459 C226.452199,48.1393683 226.25976,48.6090966 225.914767,48.95542 C225.569775,49.3017434 225.100786,49.4959947 224.611947,49.4950511 L224.611947,49.4950511 Z" id="Shape" fill="#3F3D56" fill-rule="nonzero"></path>
            <rect id="Rectangle" fill="#3676D9" fill-rule="nonzero" x="127.478799" y="71.2158809" width="33.1160009" height="7.47766749"></rect>
            <rect id="Rectangle" fill="#3676D9" fill-rule="nonzero" opacity="0.3" x="127.478799" y="83.3225806" width="101.484519" height="3.91687345"></rect>
            <rect id="Rectangle" fill="#3676D9" fill-rule="nonzero" opacity="0.3" x="127.478799" y="91.8684864" width="40.5938076" height="3.91687345"></rect>
            <rect id="Rectangle" fill="#3676D9" fill-rule="nonzero" x="127.478799" y="158.099256" width="33.1160009" height="7.47766749"></rect>
            <rect id="Rectangle" fill="#3676D9" fill-rule="nonzero" opacity="0.3" x="127.478799" y="170.205955" width="101.484519" height="3.91687345"></rect>
            <rect id="Rectangle" fill="#3676D9" fill-rule="nonzero" opacity="0.3" x="127.478799" y="178.751861" width="40.5938076" height="3.91687345"></rect>
            <rect id="Rectangle" fill="#3676D9" fill-rule="nonzero" x="127.478799" y="201.540943" width="33.1160009" height="7.47766749"></rect>
            <rect id="Rectangle" fill="#3676D9" fill-rule="nonzero" opacity="0.3" x="127.478799" y="213.647643" width="101.484519" height="3.91687345"></rect>
            <rect id="Rectangle" fill="#3676D9" fill-rule="nonzero" opacity="0.3" x="127.478799" y="222.193548" width="40.5938076" height="3.91687345"></rect>
            <ellipse id="Oval" fill="#3676D9" fill-rule="nonzero" cx="210.802931" cy="240.709677" rx="12.1069251" ry="12.1066998"></ellipse>
            <path d="M216.973901,239.755385 L216.973901,245.605769 C216.973901,245.851591 216.77462,246.050868 216.528794,246.050868 L204.599912,246.050868 C204.354086,246.050868 204.154804,245.851591 204.154804,245.605769 L204.154804,236.287171 C204.154804,236.04135 204.354086,235.842072 204.599912,235.842072 L212.900277,235.842072" id="Path" stroke="#FFFFFF" stroke-linecap="round"></path>
            <line x1="206.41239" y1="239.28536" x2="214.481299" y2="239.28536" id="Path" stroke="#FFFFFF" stroke-linecap="round"></line>
            <line x1="206.529898" y1="240.948251" x2="214.602369" y2="240.948251" id="Path" stroke="#FFFFFF" stroke-linecap="round"></line>
            <line x1="206.647407" y1="242.607581" x2="214.719877" y2="242.607581" id="Path" stroke="#FFFFFF" stroke-linecap="round"></line>
            <line x1="215.432049" y1="235.368486" x2="215.432049" y2="239.402866" id="Path" stroke="#FF00FF"></line>
            <line x1="217.451057" y1="237.387457" x2="213.413041" y2="237.387457" id="Path" stroke="#FF00FF"></line>
            <line x1="215.432049" y1="235.368486" x2="215.432049" y2="239.402866" id="Path" stroke="#FFFFFF" stroke-linecap="round"></line>
            <line x1="217.451057" y1="237.387457" x2="213.413041" y2="237.387457" id="Path" stroke="#FFFFFF" stroke-linecap="round"></line>
            <path d="M316.418047,265.33969 C317.486306,263.377692 316.275613,260.970596 314.890438,259.222246 C313.505264,257.473896 311.824538,255.661452 311.860146,253.421712 C311.913559,250.216998 315.314181,248.326216 318.031117,246.624156 C320.048541,245.364849 321.908576,243.869438 323.571816,242.169603 C324.268868,241.516047 324.845073,240.744573 325.273907,239.890695 C325.836523,238.637295 325.82228,237.212978 325.786671,235.842072 C325.665602,231.270012 325.438894,226.701514 325.106547,222.136576" id="Path" stroke="#3F3D56" stroke-width="4"></path>
            <path d="M330.273355,221.88732 C330.19641,220.186227 329.256479,218.642084 327.780753,217.792407 L326.662643,220.007221 L326.698251,217.325943 C326.163411,217.169196 325.606362,217.101822 325.049573,217.126538 C322.303435,217.262719 320.186032,219.596534 320.316939,222.342878 C320.447846,225.089221 322.777632,227.211065 325.524273,227.085437 C328.270914,226.959809 330.397269,224.634147 330.276916,221.88732 L330.273355,221.88732 Z" id="Path" fill="#57B894" fill-rule="nonzero"></path>
            <path d="M321.360522,255.711303 C320.280133,257.805277 317.881159,258.856872 315.60911,258.232447 C313.33706,257.608022 311.812487,255.478122 311.954025,253.126125 C312.095564,250.774127 313.864558,248.84242 316.195093,248.49496 C318.525629,248.147499 320.781181,249.479185 321.60266,251.687605 L318.479786,254.226452 L321.916016,253.432395 C321.914749,254.2254 321.724313,255.006661 321.360522,255.711303 L321.360522,255.711303 Z" id="Path" fill="#57B894" fill-rule="nonzero"></path>
            <path d="M318.892845,246.008139 C316.319132,246.189928 314.031979,244.377912 313.620267,241.830894 C313.208554,239.283877 314.808343,236.84358 317.308263,236.205273 L317.279776,238.263412 L318.412129,236.023672 L318.412129,236.023672 C319.736448,235.958905 321.03201,236.424361 322.012311,237.317106 C322.992612,238.209852 323.576882,239.456331 323.635911,240.780893 C323.665166,241.357559 323.592849,241.93488 323.42226,242.486514 C322.806949,244.49861 320.994561,245.907744 318.892845,246.008139 Z" id="Path" fill="#57B894" fill-rule="nonzero"></path>
            <path d="M331.024696,237.935819 C328.921731,238.013112 326.996719,236.761582 326.214027,234.808203 C325.431335,232.854825 325.959554,230.620355 327.534064,229.224188 C329.108574,227.828022 331.390228,227.570892 333.235991,228.581613 L332.352897,231.002953 L334.168936,229.258164 C335.143071,230.146536 335.725629,231.384608 335.789128,232.701452 C335.812836,233.164374 335.770876,233.628321 335.664497,234.079479 C335.159573,236.261096 333.261899,237.838335 331.024696,237.935819 Z" id="Path" fill="#57B894" fill-rule="nonzero"></path>
            <path d="M329.600352,223.219057 C328.446634,223.343685 327.324963,223.703325 326.167683,223.774541 C325.010403,223.845757 323.739176,223.571576 323.005639,222.670695 C322.613944,222.186427 322.414536,221.57397 322.083376,221.043412 C321.767098,220.55052 321.33413,220.143244 320.822832,219.857667 C320.000196,221.577221 320.230177,223.61534 321.415318,225.108345 C322.600459,226.60135 324.533253,227.287833 326.394657,226.876888 C328.25606,226.465943 329.720161,225.029523 330.166529,223.176328 C329.978991,223.183449 329.790265,223.197692 329.600352,223.219057 Z" id="Path" fill="#000000" fill-rule="nonzero" opacity="0.1"></path>
            <path d="M331.024696,237.935819 C329.271328,238.024782 327.600418,237.184925 326.625731,235.724746 C325.651043,234.264567 325.516282,232.39935 326.270948,230.814231 C326.667486,231.080825 327.008512,231.421844 327.275111,231.818375 C327.631197,232.356055 327.848409,232.979194 328.26503,233.470583 C329.044858,234.385707 330.373059,234.684814 331.580191,234.631402 C332.787322,234.57799 333.951724,234.232593 335.141051,234.122208 C335.308411,234.122208 335.475772,234.097283 335.646693,234.093722 C335.138089,236.263587 333.251003,237.832252 331.024696,237.935819 Z" id="Path" fill="#000000" fill-rule="nonzero" opacity="0.1"></path>
            <path d="M318.892845,246.008139 C317.156338,246.096056 315.499481,245.272881 314.520621,243.83589 C313.541762,242.398898 313.382339,240.555727 314.099927,238.97201 C314.514544,239.242789 314.876509,239.58665 315.168186,239.986836 C315.556319,240.535199 315.798458,241.16902 316.254248,241.674653 C317.098172,242.611141 318.515394,242.942295 319.790182,242.913809 C321.06497,242.885323 322.22225,242.582655 323.450747,242.486514 C322.83193,244.50811 321.00521,245.91951 318.892845,246.008139 Z" id="Path" fill="#000000" fill-rule="nonzero" opacity="0.1"></path>
            <path d="M321.360522,255.711303 C320.234638,258.227532 317.282084,259.354647 314.765808,258.228784 C312.249532,257.102921 311.122397,254.150423 312.24828,251.634194 C312.66077,251.903924 313.030465,252.234002 313.345025,252.613412 C313.82218,253.190261 314.135536,253.849007 314.683909,254.393809 C315.705875,255.397953 317.354554,255.818127 318.825189,255.850174 C319.672306,255.854186 320.518911,255.807814 321.360522,255.711303 L321.360522,255.711303 Z" id="Path" fill="#000000" fill-rule="nonzero" opacity="0.1"></path>
            <path d="M308.879706,263.078586 C308.879706,263.078586 312.825139,262.957519 314.014467,262.11005 C315.203794,261.262581 320.067929,260.254876 320.374163,261.611538 C320.680397,262.968201 326.302996,268.377047 321.85192,268.398412 C317.400845,268.419777 311.50406,267.707618 310.314733,266.974094 C309.125406,266.240571 308.879706,263.078586 308.879706,263.078586 Z" id="Path" fill="#656380" fill-rule="nonzero"></path>
            <path d="M321.930259,267.928387 C317.475623,267.963995 311.582399,267.234032 310.396633,266.504069 C309.492174,265.952146 309.132527,263.979467 309.011458,263.067903 L308.879706,263.067903 C308.879706,263.067903 309.128966,266.251253 310.30405,266.984777 C311.479134,267.7183 317.386601,268.43402 321.841238,268.409094 C323.126708,268.409094 323.568255,267.94263 323.543329,267.266079 C323.375969,267.664888 322.888131,267.917705 321.930259,267.928387 Z" id="Path" fill="#000000" fill-rule="nonzero" opacity="0.2"></path>
            <path d="M228.607266,117.872965 L228.607266,147.406191 C228.607266,151.142678 225.578154,154.1717 221.841598,154.1717 L124.398655,154.1717 L124.398655,111.086092 L221.841598,111.086092 C223.639663,111.086092 225.363775,111.801807 226.633193,113.075211 C227.902612,114.348615 228.61291,116.074942 228.607266,117.872965 L228.607266,117.872965 Z" id="Path" fill="#3F3D56" fill-rule="nonzero"></path>
            <rect id="Rectangle" fill="#F2F2F2" fill-rule="nonzero" x="74.0658945" y="105.043424" width="143.146585" height="43.0856079" rx="19.03"></rect>
            <rect id="Rectangle" fill="#F2F2F2" fill-rule="nonzero" x="74.0658945" y="105.043424" width="143.146585" height="43.0856079" rx="19.03"></rect>
            <rect id="Rectangle" fill="#3676D9" fill-rule="nonzero" x="91.5141101" y="114.301489" width="33.1160009" height="7.47766749"></rect>
            <rect id="Rectangle" fill="#3676D9" fill-rule="nonzero" opacity="0.3" x="91.5141101" y="126.408189" width="101.484519" height="3.91687345"></rect>
            <rect id="Rectangle" fill="#3676D9" fill-rule="nonzero" opacity="0.3" x="91.5141101" y="134.954094" width="40.5938076" height="3.91687345"></rect>
            <ellipse id="Oval" fill="#3F3D56" fill-rule="nonzero" cx="32.8809841" cy="87.8946402" rx="12.7300756" ry="12.7298387"></ellipse>
            <path d="M25.4957598,186.920323 C26.8097173,196.139218 25.2073302,205.539715 22.7111671,214.509355 C22.2446944,216.179367 21.7426131,217.863623 20.8702023,219.362717 C19.9977915,220.861811 18.7835382,222.150819 17.7580104,223.560893 C15.6214942,226.502109 14.3680714,229.970323 13.1965483,233.402928 C9.96669844,242.901143 7.25409135,252.567449 5.07066509,262.359305 C4.93909799,262.760664 4.93909799,263.193542 5.07066509,263.594901 C5.38045993,264.30706 6.32052706,264.39964 7.09323375,264.396175 L17.0850078,264.342667 C17.4410938,263.658995 16.7823347,262.91835 16.3728357,262.263164 C14.9484916,260.04835 16.315862,257.171228 17.5728456,254.853151 C20.6278325,249.223211 22.9926998,243.245397 24.6162273,237.049181 C25.2999125,234.439119 25.8554067,231.772084 26.9663952,229.311576 C28.3088395,226.32763 30.4133079,223.760298 32.1225209,220.968635 C34.1094809,217.724752 35.5587511,214.203127 36.9973387,210.667258 C39.0056639,205.760484 41.0317934,200.793176 41.8223044,195.551687 C42.5665242,190.63067 42.1997556,185.617072 41.7154786,180.664007 C41.7611436,180.365096 41.6602315,180.062468 41.4443069,179.850781 C41.2283823,179.639094 40.9238091,179.544196 40.6258553,179.595769 L27.2192162,178.904975 C24.4559886,178.762543 23.8007903,178.157208 24.2209719,180.870533 C24.5129624,182.896625 25.2037693,184.869305 25.4957598,186.920323 Z" id="Path" fill="#3F3D56" fill-rule="nonzero"></path>
            <path d="M25.4957598,186.920323 C26.8097173,196.139218 25.2073302,205.539715 22.7111671,214.509355 C22.2446944,216.179367 21.7426131,217.863623 20.8702023,219.362717 C19.9977915,220.861811 18.7835382,222.150819 17.7580104,223.560893 C15.6214942,226.502109 14.3680714,229.970323 13.1965483,233.402928 C9.96669844,242.901143 7.25409135,252.567449 5.07066509,262.359305 C4.93909799,262.760664 4.93909799,263.193542 5.07066509,263.594901 C5.38045993,264.30706 6.32052706,264.39964 7.09323375,264.396175 L17.0850078,264.342667 C17.4410938,263.658995 16.7823347,262.91835 16.3728357,262.263164 C14.9484916,260.04835 16.315862,257.171228 17.5728456,254.853151 C20.6278325,249.223211 22.9926998,243.245397 24.6162273,237.049181 C25.2999125,234.439119 25.8554067,231.772084 26.9663952,229.311576 C28.3088395,226.32763 30.4133079,223.760298 32.1225209,220.968635 C34.1094809,217.724752 35.5587511,214.203127 36.9973387,210.667258 C39.0056639,205.760484 41.0317934,200.793176 41.8223044,195.551687 C42.5665242,190.63067 42.1997556,185.617072 41.7154786,180.664007 C41.7611436,180.365096 41.6602315,180.062468 41.4443069,179.850781 C41.2283823,179.639094 40.9238091,179.544196 40.6258553,179.595769 L27.2192162,178.904975 C24.4559886,178.762543 23.8007903,178.157208 24.2209719,180.870533 C24.5129624,182.896625 25.2037693,184.869305 25.4957598,186.920323 Z" id="Path" fill="#000000" fill-rule="nonzero" opacity="0.1"></path>
            <path d="M28.1307965,164.505124 C25.4067383,168.421998 22.5509284,172.929963 23.4553869,177.619529 C24.1426329,181.180323 26.8560085,183.939938 29.4162671,186.521514 C39.6501796,196.797965 49.7131708,208.213871 53.1956922,222.296811 C54.093029,225.935943 54.527454,229.671216 55.3001607,233.335273 C56.7031396,239.993958 59.217107,246.360658 61.7097092,252.688189 L68.3756397,269.559231 C72.6197871,269.663515 76.4759835,267.102251 78.0255712,263.149801 C77.1495996,263.082146 76.0065634,262.234677 75.4937995,261.522519 C72.6451113,257.58072 72.0611302,252.510149 71.3311538,247.703077 C70.5228385,242.390372 69.4438978,237.120397 68.3613963,231.853983 L63.5898435,208.559268 C63.0379101,205.870868 62.4859768,203.178908 61.766683,200.533238 C58.9820902,190.267469 53.7048953,180.592792 52.8894582,169.978065 C52.768389,168.418437 52.6936109,166.705695 51.6360354,165.548437 C50.525047,164.327084 48.7018865,164.124119 47.0532082,164.027978 C40.3837168,163.586439 34.6293666,162.934814 28.1307965,164.505124 Z" id="Path" fill="#3F3D56" fill-rule="nonzero"></path>
            <path d="M10.1377693,262.120732 C9.41152995,261.948299 8.66915169,261.852819 7.9229142,261.835868 C6.47279107,261.887236 5.13188814,262.619703 4.30508012,263.812109 C3.88907316,264.47873 3.5622505,265.197008 3.33296525,265.948586 L2.36797211,268.718883 C2.08310328,269.530744 1.80535618,270.467233 2.22909856,271.211439 C2.54205429,271.679109 2.99615333,272.034647 3.52525171,272.226266 C5.86117608,273.266017 8.49265185,273.32299 11.038667,273.572246 C13.509904,273.81438 15.9597759,274.248797 18.3989652,274.708139 C19.2393283,274.864814 20.0761304,275.02505 20.9271761,275.110509 C22.8286755,275.302792 24.7444183,275.110509 26.6459177,274.939591 L28.6079518,274.750868 C29.2647142,274.722544 29.9143093,274.602695 30.5379381,274.394789 C31.1674755,274.181246 31.6821628,273.719323 31.9622822,273.116464 C32.4465592,271.916476 31.406788,270.49572 30.1355608,270.267829 C29.6192361,270.164566 29.085107,270.210856 28.5616606,270.143201 C27.9683929,270.041492 27.3896716,269.868118 26.8382042,269.626886 C24.3277977,268.640546 21.7924651,267.643524 19.5847317,266.091017 C18.9722638,265.660161 18.3313089,265.058387 18.3989652,264.31062 C18.4626236,263.990346 18.569225,263.680129 18.7158818,263.388375 C19.0152338,262.624296 19.0253634,261.777222 18.7443687,261.006203 C18.6232994,260.67861 18.3882827,260.333213 18.0571227,260.294045 C17.1170555,260.180099 17.2310031,261.551005 17.0921295,262.074442 C16.9034039,262.7866 16.5615613,262.850695 15.8921196,262.7866 C13.969255,262.580074 12.0463904,262.483933 10.1377693,262.120732 Z" id="Path" fill="#F2F2F2" fill-rule="nonzero"></path>
            <path d="M66.3530711,271.674342 C66.370235,273.065689 66.8486549,274.412002 67.7133197,275.502196 C67.9776756,275.827416 68.3077263,276.09315 68.6818737,276.28201 C69.2396545,276.511181 69.8430933,276.607486 70.4444996,276.563313 C72.1395489,276.526436 73.8144419,276.187605 75.3905346,275.56273 C75.9457815,275.311272 76.5167107,275.095988 77.0997475,274.918226 C77.8335163,274.768124 78.575445,274.661118 79.3217243,274.597754 C82.2665558,274.17402 84.8517404,272.436352 87.6968678,271.556836 C88.5469462,271.346208 89.3801258,271.072454 90.18947,270.737854 C91.3147019,270.207295 92.2262821,269.313536 93.1200581,268.448263 C93.6461464,267.98157 94.0997914,267.439126 94.4660633,266.838784 C94.9895097,265.863127 95.0215575,264.702308 95.0429226,263.598462 C95.0621274,263.4264 95.0325111,263.252408 94.957462,263.09639 C94.8761501,262.984028 94.7651898,262.896494 94.6369846,262.843573 C93.7716955,262.416278 92.7461677,262.629926 91.7882963,262.797283 C88.3271401,263.4133 84.7840841,263.299355 81.2695149,263.185409 C80.5839473,263.279644 79.9206627,262.901257 79.6528844,262.263164 L78.3175617,260.126687 C77.9365497,259.514231 77.3312034,258.812754 76.6403965,259.022841 C76.0884632,259.190199 75.864129,259.866749 75.8854941,260.447159 C75.9068593,261.027568 76.0849023,261.604417 75.9745157,262.170583 C75.8153969,262.800439 75.403019,263.33652 74.8350404,263.651873 C74.2741199,263.956868 73.6755053,264.186732 73.0546102,264.335546 C71.0890153,264.89103 68.802943,265.52129 67.2824556,266.966973 C66.1821498,268.006725 66.2854147,270.303437 66.3530711,271.674342 Z" id="Path" fill="#F2F2F2" fill-rule="nonzero"></path>
            <path d="M65.6622642,130.417643 C66.429053,129.831733 67.0871041,129.115844 67.6064939,128.302531 C68.0539849,127.384877 68.3349089,126.39503 68.4361744,125.379119 L68.9952294,121.846811 C69.3050243,119.899057 69.668232,117.837357 70.9679461,116.352506 C72.2676601,114.867655 74.8564055,114.337097 76.1774847,115.804144 C76.7543441,116.441526 76.9822391,117.317481 77.1246735,118.168511 C77.9475448,123.308406 76.4002229,128.544593 72.9157366,132.411687 C71.3169104,134.163598 69.3548763,135.555868 67.6634677,137.211638 C66.1892715,138.635955 64.9109227,140.27036 63.550674,141.819305 C60.261219,145.560953 56.4935093,148.853298 52.3446466,151.611489 C52.3944987,148.962258 52.7327804,146.120744 52.3446466,143.489318 C52.0562169,141.587854 51.2763885,140.562345 53.1173533,139.319628 C57.3903857,136.41402 61.7025875,133.786154 65.6622642,130.417643 Z" id="Path" fill="#FBBEBE" fill-rule="nonzero"></path>
            <path d="M29.7545488,104.359752 C29.6156752,106.254094 28.8287251,108.191166 27.2619466,109.28433 C31.6987785,110.836836 36.0750758,112.548391 40.3908385,114.418995 C39.5575972,113.617816 39.3047761,112.389342 39.2656067,111.235645 C39.15522,108.219653 40.1985521,105.253511 41.7226003,102.654132 C41.9650516,102.32441 42.1050019,101.930575 42.1249775,101.521799 C42.0751255,100.681452 41.0780846,100.293325 40.2590867,100.097481 C37.4648779,99.4196678 34.6131437,99.0059833 31.7415088,98.8618859 C30.513012,98.8227171 29.0566202,98.4345906 29.3343673,99.9977792 C29.5978709,101.457705 29.8649355,102.882022 29.7545488,104.359752 Z" id="Path" fill="#FBBEBE" fill-rule="nonzero"></path>
            <ellipse id="Oval" fill="#FBBEBE" fill-rule="nonzero" cx="38.3362221" cy="94.9663772" rx="10.4083947" ry="10.408201"></ellipse>
            <path d="M48.6413519,123.078846 C48.2779596,122.297306 47.8352785,121.555143 47.3202727,120.864032 C45.4330167,118.154268 43.4959087,115.448065 41.0745237,113.204764 C39.2403238,111.569035 37.2551633,110.110893 35.1456913,108.849913 C34.0074919,108.069713 32.7560542,107.469226 31.4352749,107.069516 C30.6515277,106.895829 29.8547244,106.787447 29.0530593,106.745484 L26.3503663,106.524715 C26.1133814,106.493294 25.8728694,106.50051 25.6381943,106.546079 C24.904657,106.731241 24.5699362,107.642804 24.726614,108.379888 C24.8832919,109.116973 25.4387861,109.715186 25.9301848,110.274231 C26.0512541,115.789901 23.5978213,121.230794 23.2666613,126.739342 C22.6862411,136.353486 28.5652214,145.330248 29.035255,154.969318 C29.0837124,155.404891 29.0375567,155.845791 28.8999423,156.261886 C28.8216034,156.46129 28.704095,156.642891 28.6150735,156.838734 C28.3373264,157.444069 28.348009,158.131303 28.2981569,158.797171 C28.1041472,161.171996 27.0642481,163.398324 25.3675689,165.07129 C25.8085202,165.618639 26.3754066,166.051127 27.0198081,166.331811 C28.1557225,166.826762 29.5124103,166.869491 30.7195419,167.214888 C33.8673424,168.133573 37.0934819,169.05938 40.3659125,168.863536 C40.7724616,167.978868 41.0241875,167.030999 41.1101323,166.061191 C41.5730442,165.772767 42.1071732,166.388784 42.1783904,166.930025 C42.2496076,167.471266 42.1463427,168.101526 42.5344764,168.493213 C42.9226102,168.884901 43.4140089,168.824367 43.8876034,168.763834 C45.885246,168.511017 47.8045497,167.838027 49.7630229,167.385806 C51.7214961,166.933586 53.8152819,166.716377 55.7203422,167.364442 C56.1049151,166.876613 55.9411155,166.153772 55.6277598,165.619653 C55.3144041,165.085533 54.8692966,164.615509 54.6912536,164.020856 C54.6016588,163.67825 54.5632604,163.32427 54.577306,162.970422 C54.577306,159.925943 55.2040174,156.849417 54.6093538,153.861911 C54.4348716,152.985955 54.1571245,152.131365 53.9790815,151.251849 C53.6229955,149.546228 53.6764084,147.787196 53.7226996,146.045968 C53.7689907,144.304739 53.5589,142.421079 53.5232914,140.654926 C53.5221879,139.925051 53.4746135,139.195987 53.380857,138.472159 C53.2597877,137.71371 53.0247709,136.973065 52.9606754,136.207494 C52.768389,134.2633 53.5517783,132.33335 53.4342699,130.382035 C53.2384226,127.419454 49.7950706,125.809975 48.6413519,123.078846 Z" id="Path" fill="#FF6584" fill-rule="nonzero"></path>
            <path d="M25.1503564,121.683015 C22.6292673,128.370186 21.3972096,135.463288 20.165152,142.506538 L17.3164637,159.049988 C16.5081484,163.72531 15.6962723,168.429119 15.72832,173.172097 C15.72832,174.503834 15.8137807,175.860496 15.4648163,177.145943 C15.0090262,178.833759 13.8766726,180.240273 13.0185053,181.774975 C11.2772274,184.909016 10.6972027,188.556799 11.3805096,192.076352 C11.6725001,193.554082 12.4701328,195.231216 13.969255,195.402134 C15.2013127,195.537444 16.2660099,194.558226 16.9853037,193.54696 C18.6375429,191.228883 19.4565408,188.430099 20.190078,185.674045 C22.5515119,176.667181 24.2028799,167.488985 25.1289912,158.223883 C25.2170186,157.051068 25.3823645,155.885341 25.6239508,154.734305 C25.9384346,153.547627 26.3407342,152.385979 26.8275216,151.25897 C27.9171449,148.557514 29.0079551,145.856059 30.0999522,143.154603 C32.6174805,136.912531 35.1492522,130.641973 38.6068475,124.866365 C35.1884216,123.883586 31.6311222,122.729888 28.2126963,121.757792 C27.226338,121.465806 26.1687624,121.640285 25.1503564,121.683015 Z" id="Path" fill="#FBBEBE" fill-rule="nonzero"></path>
            <path d="M31.075628,126.753586 C28.6827298,126.23727 26.2079319,126.397506 23.7651817,126.336973 C23.4182762,126.362199 23.072759,126.272066 22.7823843,126.080596 C22.2874247,125.656861 22.4975155,124.862804 22.7467757,124.26103 L23.9289813,121.412395 C24.1230186,120.823531 24.4466963,120.285701 24.8761702,119.838524 C25.4779555,119.304404 26.3254403,119.172655 27.123073,119.076514 C29.7189402,118.777407 32.3895854,118.677705 34.9071137,119.379181 C37.4246419,120.080658 39.792614,121.675893 40.9178459,124.0367 C41.3878794,125.019479 41.6050919,126.258635 40.9819414,127.152395 C40.0561177,128.480571 37.9801361,129.965422 36.4311619,129.23902 C34.5759536,128.370186 33.1551704,127.205806 31.075628,126.753586 Z" id="Path" fill="#FF6584" fill-rule="nonzero"></path>
            <path d="M43.7985819,78.8003722 C41.7445531,78.7786758 39.7291773,79.3592615 38.0015013,80.4703846 C34.6681795,77.3118657 29.8920718,76.1933792 25.5028816,77.5434119 C24.8660732,73.9041153 21.6024292,71.3201009 17.9140192,71.5348737 C14.2256091,71.7496465 11.2839467,74.6949904 11.0738517,78.3836014 C10.8637568,82.0722124 13.4519598,85.3325132 17.0921295,85.9646898 C15.6200895,90.3847133 16.6801348,95.2557827 19.855848,98.6643967 C23.0315612,102.073011 27.8156229,103.474644 32.3287111,102.318694 C36.8417993,101.162743 40.3629494,97.6338719 41.5089487,93.1183251 C42.2600617,93.2720661 43.0247738,93.3496096 43.7914601,93.3497767 C48.8122732,93.3497767 52.8858974,90.0916501 52.8858974,86.0750744 C52.8858974,82.0584988 48.8122732,78.8003722 43.7985819,78.8003722 Z" id="Path" fill="#3F3D56" fill-rule="nonzero"></path>
            <path d="M45.6110598,89.7106452 C44.8442613,89.7127237 44.0793204,89.635157 43.3285483,89.4791935 C42.971925,90.781569 42.4093278,92.0185386 41.6620657,93.1432506 C42.3661859,93.2789345 43.0815092,93.3480812 43.7985819,93.3497767 C48.4917958,93.3497767 52.3446466,90.5011414 52.8396062,86.8548883 C51.1695627,88.5925558 48.5523304,89.7106452 45.6110598,89.7106452 Z" id="Path" fill="#000000" fill-rule="nonzero" opacity="0.1"></path>
            <path d="M31.0613845,98.8155955 C27.0223077,98.8097634 23.2249662,96.8901644 20.8253966,93.6411879 C18.4258269,90.3922114 17.7079695,86.198308 18.890364,82.3362407 C15.4124364,81.7243598 12.876238,78.7032016 12.8760709,75.1719231 C12.8753423,74.7348286 12.9146763,74.2985872 12.9935793,73.8686725 C11.1844168,75.8231842 10.5879419,78.6100638 11.4386184,81.1338388 C12.2892948,83.6576137 14.4511223,85.5148005 17.0743252,85.9753722 C15.0333991,92.6765863 18.790331,99.7675056 25.4811529,101.842611 C32.1719747,103.917717 39.2821319,100.19714 41.3914403,93.517134 C39.0035454,96.8452065 35.1575432,98.8178865 31.0613845,98.8155955 L31.0613845,98.8155955 Z" id="Path" fill="#000000" fill-rule="nonzero" opacity="0.1"></path>
        </g>
    </g>
</svg>