<?xml version="1.0" encoding="UTF-8" standalone="no"?><!DOCTYPE svg PUBLIC "-//W3C//DTD SVG 1.1//EN" "http://www.w3.org/Graphics/SVG/1.1/DTD/svg11.dtd"><svg width="100%" height="100%" viewBox="0 0 512 512" version="1.1" xmlns="http://www.w3.org/2000/svg" xmlns:xlink="http://www.w3.org/1999/xlink" xml:space="preserve" xmlns:serif="http://www.serif.com/" style="fill-rule:evenodd;clip-rule:evenodd;stroke-linecap:round;stroke-linejoin:round;stroke-miterlimit:1.5;"><rect id="Artboard1" x="0" y="0" width="512" height="512" style="fill:none;"/><g id="Layer3"></g><g id="Layer1"><g><path d="M228.852,430.237l21.437,0l0,-14.853l11.422,0l0,14.853l21.437,0l0,11.316l-21.437,0l0,34.933l-11.422,0l0,-34.933l-21.437,0l0,-11.316Z" style="fill:#0097db;stroke:#0097db;stroke-width:7.84px;"/><path d="M256,361.819l0,57.248" style="fill:none;stroke:#69bac9;stroke-width:7.84px;"/><path d="M256,362.325l59.971,-59.343l38.665,-79.082l46.076,-66.68l-58.355,-67.252l-86.357,-29.381l-83.794,31.358l-62.4,63.957l42.842,69.305l42.264,76.116l61.088,61.002Z" style="fill:none;stroke:#69bac9;stroke-width:10.45px;"/><g><ellipse cx="111.918" cy="157.342" rx="29.887" ry="28.084" style="fill:#0097db;stroke:#69bac9;stroke-width:2.39px;"/><ellipse cx="152.281" cy="224.196" rx="29.887" ry="28.084" style="fill:#0097db;stroke:#69bac9;stroke-width:2.39px;"/><ellipse cx="194.834" cy="301.739" rx="29.887" ry="28.084" style="fill:#0097db;stroke:#69bac9;stroke-width:2.39px;"/><ellipse cx="254.607" cy="357.908" rx="29.887" ry="28.084" style="fill:#0097db;stroke:#69bac9;stroke-width:2.39px;"/><ellipse cx="171.691" cy="91.683" rx="29.887" ry="28.084" style="fill:#0097db;stroke:#69bac9;stroke-width:2.39px;"/><ellipse cx="254.607" cy="63.599" rx="29.887" ry="28.084" style="fill:#0097db;stroke:#69bac9;stroke-width:2.39px;"/><ellipse cx="340.309" cy="91.683" rx="29.887" ry="28.084" style="fill:#0097db;stroke:#69bac9;stroke-width:2.39px;"/><ellipse cx="400.082" cy="157.342" rx="29.887" ry="28.084" style="fill:#0097db;stroke:#69bac9;stroke-width:2.39px;"/><ellipse cx="353.148" cy="224.196" rx="29.887" ry="28.084" style="fill:#0097db;stroke:#69bac9;stroke-width:2.39px;"/><ellipse cx="314.38" cy="301.739" rx="29.887" ry="28.084" style="fill:#0097db;stroke:#69bac9;stroke-width:2.39px;"/></g><g><path d="M123.131,138.95c0.862,0.554 1.733,1.114 2.468,1.79c1.784,1.642 3.532,3.326 5.065,5.144c4.553,5.402 5.86,12.712 3.896,18.995c-1.845,5.902 -7.961,9.942 -14.459,11.764c-2.629,0.738 -5.334,1.285 -8.041,1.793c-1.155,0.217 -2.343,0.298 -3.524,0.379c0.641,-0.415 1.284,-0.833 1.863,-1.31c1.484,-1.224 3.03,-2.408 4.317,-3.788c2.928,-3.139 5.285,-6.123 6.893,-9.855c2.529,-5.869 2.98,-12.444 2.469,-18.697c-0.17,-2.082 -0.559,-4.151 -0.947,-6.215Z" style="fill:#69bac9;"/><path d="M168.23,207.957c0.59,0.507 1.186,1.02 1.682,1.649c1.202,1.528 2.378,3.097 3.397,4.804c3.026,5.069 3.682,12.087 2.061,18.219c-1.523,5.759 -6.001,9.859 -10.668,11.83c-1.889,0.798 -3.824,1.413 -5.759,1.992c-0.825,0.247 -1.67,0.364 -2.509,0.48c0.469,-0.422 0.94,-0.846 1.368,-1.326c1.095,-1.229 2.233,-2.423 3.195,-3.797c2.188,-3.127 3.966,-6.085 5.241,-9.742c2.006,-5.75 2.567,-12.114 2.435,-18.138c-0.045,-2.004 -0.244,-3.99 -0.443,-5.971Z" style="fill:#69bac9;"/><path d="M190.208,76.239c0.625,0.586 1.257,1.177 1.763,1.873c1.229,1.688 2.423,3.413 3.425,5.255c2.976,5.469 3.067,12.568 0.643,18.475c-2.277,5.549 -7.77,9.043 -13.278,10.385c-2.23,0.543 -4.495,0.898 -6.756,1.216c-0.965,0.135 -1.939,0.139 -2.907,0.142c0.574,-0.358 1.151,-0.718 1.684,-1.14c1.364,-1.082 2.775,-2.121 4,-3.365c2.79,-2.829 5.095,-5.545 6.893,-9.026c2.828,-5.475 4.064,-11.757 4.477,-17.791c0.138,-2.008 0.097,-4.019 0.056,-6.024Z" style="fill:#69bac9;"/><path d="M275.563,50.349c0.475,0.604 0.955,1.215 1.312,1.922c0.867,1.717 1.699,3.47 2.349,5.329c1.93,5.522 1.136,12.527 -1.711,18.251c-2.675,5.376 -7.91,8.588 -12.893,9.678c-2.017,0.441 -4.042,0.694 -6.06,0.912c-0.86,0.093 -1.713,0.055 -2.56,0.017c0.547,-0.329 1.096,-0.66 1.614,-1.053c1.326,-1.009 2.688,-1.974 3.913,-3.149c2.788,-2.672 5.139,-5.253 7.14,-8.61c3.147,-5.28 5.002,-11.423 6.106,-17.358c0.368,-1.975 0.579,-3.96 0.79,-5.939Z" style="fill:#69bac9;"/><path d="M214.294,285.174c0.515,0.497 1.036,1.001 1.466,1.622c1.043,1.508 2.062,3.058 2.94,4.747c2.605,5.017 3.413,10.508 1.878,16.65c-1.442,5.769 -5.817,11.429 -9.99,13.461c-1.688,0.822 -3.415,1.463 -5.142,2.068c-0.736,0.257 -1.487,0.386 -2.234,0.514c0.423,-0.428 0.848,-0.857 1.235,-1.342c0.991,-1.243 2.02,-2.45 2.895,-3.835c1.991,-3.151 3.615,-6.128 4.805,-9.796c1.871,-5.767 2.468,-12.126 2.446,-18.136c-0.008,-2 -0.154,-3.979 -0.299,-5.953Z" style="fill:#69bac9;"/><path d="M274.235,344.398c0.44,0.422 0.886,0.85 1.254,1.377c0.893,1.281 1.765,2.597 2.516,4.031c2.231,4.259 2.927,8.919 1.62,14.13c-1.228,4.895 -4.962,9.694 -8.526,11.415c-1.443,0.697 -2.918,1.24 -4.393,1.751c-0.629,0.218 -1.271,0.327 -1.909,0.435c0.361,-0.363 0.724,-0.727 1.054,-1.138c0.846,-1.054 1.724,-2.078 2.471,-3.252c1.699,-2.673 3.085,-5.198 4.098,-8.309c1.594,-4.893 2.099,-10.289 2.075,-15.388c-0.008,-1.698 -0.135,-3.377 -0.26,-5.052Z" style="fill:#69bac9;"/><path d="M337.865,294.256c0.428,-5.163 4.655,6.633 2.725,14.924c-1.929,8.291 -12.521,14.899 -11.64,12.704c5.209,-12.985 7.787,-14.045 8.915,-27.628Z" style="fill:#69bac9;"/><path d="M375.534,216.706c0.451,-5.159 4.477,6.596 2.548,14.887c-1.93,8.291 -12.261,14.952 -11.391,12.755c5.147,-12.998 7.657,-14.071 8.843,-27.642Z" style="fill:#69bac9;"/><path d="M422.887,150.762c0.428,-5.163 4.655,6.632 2.725,14.923c-1.929,8.292 -12.521,14.899 -11.64,12.705c5.209,-12.986 7.787,-14.045 8.915,-27.628Z" style="fill:#69bac9;"/><path d="M364.302,81.726c0.555,-5.137 3.639,6.424 1.71,14.715c-1.93,8.291 -11.038,15.204 -10.218,12.997c4.851,-13.059 7.047,-14.198 8.508,-27.712Z" style="fill:#69bac9;"/></g></g></g><path d="M256,415.452c2.833,0 5.132,2.201 5.132,4.911c0,2.711 -2.299,4.912 -5.132,4.912c-2.833,0 -5.132,-2.201 -5.132,-4.912c0,-2.71 2.299,-4.911 5.132,-4.911Zm0,0c2.833,0 5.132,2.201 5.132,4.911c0,2.711 -2.299,4.912 -5.132,4.912c-2.833,0 -5.132,-2.201 -5.132,-4.912c0,-2.71 2.299,-4.911 5.132,-4.911Z" style="fill:none;stroke:#69bac9;stroke-width:1.83px;"/></svg>